<?xml version="1.0" encoding="utf-8"?>
<!-- Generator: Adobe Illustrator 25.4.1, SVG Export Plug-In . SVG Version: 6.00 Build 0)  -->
<svg version="1.1" id="Layer_1" xmlns="http://www.w3.org/2000/svg" xmlns:xlink="http://www.w3.org/1999/xlink" x="0px" y="0px"
	 viewBox="0 0 1000 1000" style="enable-background:new 0 0 1000 1000;" xml:space="preserve">
<style type="text/css">
	.st0{fill:#4B5563;stroke:#4B5563;stroke-width:70;stroke-miterlimit:10;}
</style>
<g>
	<g transform="translate(0.000000,511.000000) scale(0.100000,-0.100000)">
		<path class="st0" d="M1834.9,3233.3c-30.8-13.5-77-46.1-98.1-71.2c-23.1-25-402.1-688.8-844.7-1475.7
			C5.1,110.5,26.4,156.6,116.7-1.1c38.5-63.5,107.7-115.5,419.4-306c302-184.7,392.5-230.9,461.7-236.6
			c148.2-13.5,232.8,55.8,371.4,302c42.3,77,40.4,77,259.7-188.6l163.5-200.1l-32.7-52c-71.2-109.7-96.2-186.6-96.2-309.8
			c-1.9-225.1,132.8-432.9,342.4-531.1c53.9-25,115.5-46.1,138.5-46.1c34.7,0,42.3-15.4,52-94.3c17.3-152,84.6-280.9,198.2-384.9
			c115.5-105.8,236.7-155.9,375.2-155.9h92.4l46.1-101.9c59.6-130.9,165.4-236.7,296.3-296.3c82.7-38.5,126.9-46.1,238.6-42.3
			l138.5,3.8l38.5-75c52-105.8,161.6-213.6,273.2-273.2c78.9-42.3,123.1-52,240.5-52c202,0,292.5,55.8,456,277.1
			c3.8,3.8,94.3-19.3,202-52c346.4-105.8,471.4-129,708.1-129c202,0,230.9,3.8,334.8,53.9c138.5,63.5,252.1,153.9,340.5,269.4
			c63.5,84.6,67.3,86.5,200.1,98.1c261.6,23.1,427.2,155.9,500.2,402.1c32.7,107.7,52,129,129,129c109.7,0,261.6,75,350.2,175.1
			c78.9,86.5,146.2,229,146.2,306c0,25,25,36.6,109.7,46.1c136.6,15.4,265.5,73.2,348.3,152c148.2,140.4,211.7,382.8,150.1,563.8
			c-17.3,50.1-30.8,92.4-30.8,94.3c0,1.9,57.7,48.1,130.9,101.9c71.2,53.9,184.7,153.9,254,223.2c67.3,69.3,130.9,127,136.6,127
			c7.7,0,44.2-55.8,82.7-123.1c92.4-163.5,161.6-213.6,300.1-213.6c102,0,121.2,9.6,481,230.9c309.8,192.4,380.9,244.3,419.4,307.9
			c90.5,157.8,111.6,111.6-775.3,1687.4c-442.5,786.9-821.6,1450.8-844.7,1475.7c-50.1,55.8-144.3,98.1-223.2,98.1
			c-75.1,0-109.7-17.3-515.6-267.5c-377.1-230.9-415.6-271.3-415.6-434.8c0-73.1,15.4-123.1,61.6-203.9l61.6-109.7l-84.6-21.2
			c-155.8-38.5-325.2-25-671.5,55.8c-502.1,115.5-744.6,142.4-1156.4,126.9c-588.8-23.1-1012-86.5-1244.8-190.5
			c-96.2-42.3-167.3-103.9-263.6-223.2l-36.6-46.1l-292.5,48.1c-304,52-363.6,73.1-584.9,215.5l-111.6,71.2l46.1,80.8
			c26.9,44.2,53.9,107.7,59.6,142.4c19.2,84.6-17.3,205.8-80.8,267.5c-28.8,26.9-215.5,150.1-413.7,269.4
			C2010,3273.7,1963.9,3290.9,1834.9,3233.3z M2281.3,2748.4c163.5-101.9,294.4-194.3,290.5-207.8
			c-3.8-13.5-355.9-644.6-781.2-1402.6L1013.4-239.7l-150.1,94.3C778.7-93.4,638.2-5,547.7,50.8c-90.5,53.9-161.6,103.9-157.8,109.7
			C501.5,377.9,1954.1,2933,1965.7,2933C1975.3,2933,2117.8,2850.3,2281.3,2748.4z M8825,1559.3
			c425.3-756.1,775.3-1383.3,777.3-1394.9c3.8-11.6-134.7-107.7-306-211.7l-311.7-190.5l-781.2,1387.2
			c-429.1,763.9-781.2,1395-783.1,1402.6c-5.7,15.4,579.1,379,611.8,380.9C8043.9,2933,8399.8,2315.4,8825,1559.3z M5885.1,2078.8
			c111.6-15.4,359.8-63.5,550.3-105.8c407.9-92.4,575.3-100.1,794.6-40.4c117.4,32.7,146.2,36.6,165.4,15.4
			c13.5-13.5,254-438.7,536.8-942.8l515.6-917.8L8261.3-91.5c-102-98.1-234.7-211.7-292.5-252.1c-94.3-63.5-111.6-69.3-138.5-44.2
			c-242.4,211.6-1083.2,827.3-1521.9,1112c-419.4,273.3-1285.2,746.6-1366,746.6c-61.6,0-463.7-126.9-502.1-157.8
			c-15.4-13.5-65.4-73.1-107.7-130.9c-244.3-323.2-563.8-519.5-846.6-519.5h-107.7l9.6,84.6c11.6,100.1,71.2,200.1,415.6,694.6
			c334.8,481,336.7,483,442.5,517.5C4588.2,2073,5457.9,2134.6,5885.1,2078.8z M2850.8,1878.7c152-94.3,296.3-146.2,494.5-175.1
			c78.9-13.5,163.5-26.9,186.6-32.7c38.5-7.7,28.8-28.8-136.6-273.2c-100.1-144.3-209.8-319.4-244.3-386.8
			c-59.6-113.5-65.4-138.5-65.4-292.5c0-192.4,25-244.3,155.9-321.3c67.3-40.4,94.3-42.3,267.5-36.6
			c134.7,5.8,230.9,19.2,317.5,50.1c244.3,84.6,498.3,271.3,694.6,511.8c109.7,132.8,125,144.3,257.8,188.6l140.4,48.1l325.2-173.2
			c731.1-390.6,1323.7-779.3,2072.2-1360.3c348.3-271.3,484.9-398.3,502.1-469.5c46.1-186.6-125-354-321.3-311.7
			c-30.8,7.6-386.8,211.7-790.8,454.1c-777.3,465.7-817.8,483-898.6,402.1c-48.1-48.1-52-161.6-3.8-205.8
			c17.3-19.2,338.6-215.5,710-438.7l677.2-404.1l1.9-84.6c0-96.2-52-196.3-121.2-227.1c-25-11.6-92.4-26.9-150.1-34.7l-103.9-11.6
			l-633,365.6c-429.1,250.2-650.3,367.5-688.8,367.5c-71.2,0-150.1-77-150.1-144.3c0-30.8,21.1-73.1,53.9-103.9
			c28.8-26.9,306-198.2,617.6-377.1c309.8-178.9,569.5-336.7,573.4-350.2c17.3-44.2-53.9-198.2-105.8-232.8
			c-36.6-23.1-88.5-32.7-186.6-30.8c-132.8,0-140.4,3.8-650.3,254c-284.7,140.4-540.6,254-569.5,254
			c-109.7,0-184.7-159.7-115.5-242.4c15.4-17.3,238.6-136.6,498.3-261.6l471.4-230.9l-92.4-82.7c-52-48.1-125-94.3-163.5-105.8
			c-152-42.3-396.4-11.6-731.1,88.5l-157.8,48.1l44.2,61.6c65.4,86.5,90.5,173.2,90.5,309.8c0,248.3-175.1,477.2-417.5,550.3
			c-67.3,21.1-75,28.8-67.3,77c13.5,90.5-34.7,265.5-98.1,359.8c-78.9,117.4-198.2,207.8-329,248.2l-102,32.7l-11.6,100.1
			c-28.8,273.2-254,484.9-534.9,506c-115.5,7.7-144.3,1.9-238.6-44.2c-73.1-34.7-130.9-82.7-178.9-146.2
			c-38.5-50.1-75.1-92.4-80.8-92.4s-32.7,32.7-61.6,71.2c-59.6,84.6-173.2,169.3-279,207.8c-159.7,55.8-384.9,15.4-498.3-90.5
			l-42.3-38.5l-121.2,150.1c-67.3,82.7-159.7,190.5-205.8,240.5c-55.8,59.6-80.8,101.9-73.1,121.2
			c9.6,28.8,937.1,1681.6,1015.9,1814.4c36.6,57.7,42.3,61.6,80.8,36.6C2700.7,1969.1,2777.7,1921,2850.8,1878.7z M2475.7-568.7
			c117.4-73.1,173.2-227.1,115.5-332.9c-52-102-254-344.4-298.2-361.7c-165.4-61.5-379,167.4-313.6,338.6
			c19.2,52,161.6,248.2,246.2,342.4C2285.1-518.7,2383.3-513,2475.7-568.7z M3456.9-587.9c84.6-52,138.5-146.2,138.5-242.4
			c0-59.6-13.5-94.3-65.4-153.9c-34.7-40.4-190.5-248.2-344.4-459.8c-153.9-211.7-294.4-400.2-309.8-417.5
			c-40.4-46.1-159.7-44.2-236.7,3.8c-82.7,50.1-148.2,178.9-134.7,261.6c11.6,65.4,596.4,887,708.1,994.7
			C3279.9-537.9,3366.5-534.1,3456.9-587.9z M3980.2-1207.5c98.1-67.3,144.3-142.4,144.3-232.8c0-75.1-25-115.5-294.4-479.1
			c-159.7-217.4-306-402.1-323.2-407.9c-109.7-42.3-254,23.1-317.5,142.4c-73.1,134.7-73.1,132.8,329,679.1
			c121.2,163.5,238.6,307.9,259.7,319.4C3841.7-1155.5,3912.9-1163.3,3980.2-1207.5z M4530.5-1942.5c77-75,84.6-92.4,84.6-177
			c0-88.4-11.6-109.7-182.8-340.5c-100.1-134.7-203.9-254-229-265.5c-157.8-73.2-377.1,134.7-331,313.6
			c9.6,42.3,279,419.4,363.6,511.8c28.8,30.8,61.6,42.3,125,42.3C4436.2-1857.8,4457.4-1867.4,4530.5-1942.5z"/>
	</g>
</g>
</svg>
